<svg width="21" height="21" viewBox="0 0 21 21" fill="none" xmlns="http://www.w3.org/2000/svg">
<path d="M16.6523 20.2771H3.30429C3.26916 20.2637 3.2353 20.2439 3.19953 20.2388C1.77199 20.0408 0.594183 18.718 0.575021 17.2821C0.567356 16.7296 0.56991 16.1765 0.573742 15.6234C0.576936 15.2063 0.886077 14.8856 1.29933 14.8505C1.4143 14.8409 1.53374 14.823 1.64041 14.7822C1.96935 14.657 2.17439 14.3018 2.12073 13.9748C2.05367 13.5705 1.77263 13.3227 1.34213 13.2901C0.861808 13.2531 0.573102 12.9446 0.572464 12.4623C0.571186 11.4934 0.560968 10.5238 0.578214 9.55485C0.583962 9.24698 0.631227 8.93145 0.717455 8.63572C0.955699 7.8156 1.48584 7.22351 2.22229 6.80195C4.60026 5.44147 6.97503 4.07588 9.35236 2.71348C10.5749 2.01344 11.7865 1.29296 13.0257 0.624215C14.2916 -0.0592195 15.9312 0.293995 16.796 1.44242C17.1952 1.9732 17.4993 2.57743 17.8231 3.16122C17.894 3.28961 17.8946 3.47675 17.8761 3.63133C17.8487 3.86127 17.6947 4.02478 17.5037 4.15444C17.2355 4.33648 17.1001 4.58941 17.1371 4.91835C17.1914 5.3974 17.7203 5.75891 18.2753 5.49959C18.7556 5.2754 19.1389 5.4057 19.3925 5.86813C19.83 6.66462 20.3965 7.40235 20.5543 8.33169V9.11221C20.5434 9.12754 20.5256 9.14223 20.523 9.15884C20.4112 9.92978 20.0542 10.5647 19.4723 11.0801C19.4199 11.1267 19.3899 11.2232 19.388 11.2979C19.3797 11.6946 19.3867 12.0912 19.3835 12.4872C19.3797 12.9414 19.0808 13.2562 18.6279 13.2888C18.1527 13.3233 17.8193 13.6503 17.8257 14.0764C17.8321 14.4998 18.1578 14.816 18.6222 14.8505C19.0878 14.885 19.3803 15.1954 19.3829 15.6655C19.3854 16.1592 19.3861 16.6536 19.3829 17.1474C19.3727 18.4938 18.58 19.6269 17.3179 20.0887C17.102 20.1679 16.8733 20.2145 16.6511 20.2758L16.6523 20.2771ZM3.7367 7.74471C3.7399 7.75812 3.74373 7.77153 3.74692 7.78494C4.12313 7.78494 4.49934 7.78239 4.87554 7.78494C5.34948 7.78878 5.68736 8.11964 5.68481 8.57185C5.68225 9.01385 5.34373 9.34215 4.88129 9.34535C4.50381 9.3479 4.12696 9.34151 3.74948 9.34726C2.97343 9.35876 2.35451 9.81098 2.19674 10.5423C2.11946 10.8987 2.15905 11.2794 2.13031 11.6473C2.11754 11.8134 2.18844 11.8798 2.32832 11.9462C3.12992 12.3295 3.60066 12.9707 3.68177 13.8535C3.76545 14.77 3.39562 15.4975 2.6381 16.0232C2.47395 16.1369 2.23315 16.2059 2.15394 16.3604C2.06963 16.5252 2.11371 16.7692 2.13925 16.9749C2.17438 17.2617 2.19163 17.5676 2.30852 17.8231C2.5985 18.4567 3.14588 18.7148 3.82485 18.7148C6.40018 18.7161 8.97615 18.7148 11.5515 18.7148C13.0799 18.7148 14.6084 18.7161 16.1369 18.7148C17.0835 18.7141 17.7088 18.1642 17.8135 17.2259C17.8416 16.9749 17.8148 16.7188 17.8276 16.4658C17.834 16.3298 17.7893 16.2646 17.6609 16.2065C16.918 15.8686 16.4614 15.2925 16.3036 14.4915C16.0986 13.4491 16.6613 12.3729 17.6328 11.945C17.779 11.8804 17.8391 11.8063 17.8282 11.6441C17.8129 11.4238 17.8461 11.1996 17.8186 10.9818C17.7873 10.7275 17.7567 10.458 17.65 10.2313C17.3607 9.61616 16.8312 9.35173 16.1675 9.34726C15.1852 9.34151 14.2035 9.34598 13.2211 9.34598C11.7642 9.34598 10.3073 9.34471 8.85032 9.34726C8.59419 9.34726 8.37639 9.26806 8.21351 9.07006C8.0104 8.82351 7.96314 8.54375 8.09535 8.25057C8.23012 7.95229 8.469 7.78686 8.8005 7.78622C10.108 7.78303 11.4148 7.78431 12.7223 7.78431C12.7925 7.78431 12.8628 7.78431 12.9509 7.78431C12.7957 7.36594 12.8436 7.00698 13.2115 6.74957C13.4881 6.55668 13.7915 6.55157 14.0706 6.74063C14.4494 6.99676 14.503 7.36083 14.3414 7.78622C15.0255 7.78622 15.6885 7.77792 16.3509 7.78878C17.0707 7.80027 17.7132 8.04363 18.2568 8.51564C18.4893 8.71748 18.6892 8.95764 18.9064 9.18183C19.0169 8.85481 19.0284 8.51437 18.8796 8.19245C18.7243 7.85776 18.5378 7.53712 18.3539 7.21648C18.329 7.17305 18.2428 7.14878 18.1827 7.1443C17.9125 7.1245 17.6315 7.1558 17.3722 7.09448C15.8309 6.73105 15.0792 5.03205 15.8865 3.66454C16.0845 3.32921 16.0449 3.12737 15.8641 2.85144C15.693 2.59021 15.5473 2.31236 15.2759 2.13607C14.7061 1.76561 14.1332 1.78158 13.5513 2.11627C10.8993 3.63963 8.24609 5.15979 5.59347 6.68059C4.97455 7.03508 4.35626 7.38957 3.73734 7.74471H3.7367Z" fill="#505050"/>
<path d="M12.2694 5.79337C11.8389 5.78954 11.4985 5.44016 11.5004 5.00583C11.5023 4.56575 11.8542 4.22722 12.3026 4.23361C12.7318 4.24 13.0665 4.59066 13.0608 5.02946C13.0557 5.45996 12.7056 5.79784 12.2694 5.79401V5.79337Z" fill="#505050"/>
<path d="M14.3101 11.2922C14.312 11.7278 13.9716 12.0753 13.5411 12.0785C13.0978 12.0817 12.7485 11.7348 12.7497 11.2941C12.751 10.8611 13.0953 10.5187 13.5296 10.5181C13.9639 10.5181 14.3082 10.8591 14.3101 11.2922Z" fill="#505050"/>
<path d="M13.5366 14.8116C13.1023 14.8135 12.7536 14.4724 12.7497 14.0419C12.7459 13.598 13.0908 13.2499 13.5334 13.2512C13.9665 13.2518 14.3088 13.5954 14.3095 14.0298C14.3095 14.4635 13.9678 14.8096 13.5366 14.8116Z" fill="#505050"/>
<path d="M13.5302 17.544C13.0966 17.544 12.7516 17.201 12.7504 16.768C12.7491 16.3247 13.0959 15.9804 13.5411 15.9836C13.9729 15.9868 14.312 16.333 14.3101 16.7692C14.3089 17.2023 13.9639 17.5446 13.5302 17.544Z" fill="#505050"/>
</svg>
