<svg width="21" height="21" viewBox="0 0 21 21" fill="none" xmlns="http://www.w3.org/2000/svg">
<path d="M16.6523 20.1287H3.30429C3.26916 20.1152 3.2353 20.0954 3.19953 20.0903C1.77199 19.8923 0.594183 18.5695 0.575021 17.1337C0.567356 16.5812 0.56991 16.0281 0.573742 15.4749C0.576936 15.0578 0.886077 14.7372 1.29933 14.7021C1.4143 14.6925 1.53374 14.6746 1.64041 14.6337C1.96935 14.5085 2.17439 14.1534 2.12073 13.8264C2.05367 13.4221 1.77263 13.1742 1.34213 13.1417C0.861808 13.1046 0.573102 12.7961 0.572464 12.3139C0.571186 11.3449 0.560968 10.3754 0.578214 9.40641C0.583962 9.09855 0.631227 8.78302 0.717455 8.48729C0.955699 7.66717 1.48584 7.07507 2.22229 6.65351C4.60026 5.29303 6.97503 3.92744 9.35236 2.56504C10.5749 1.865 11.7865 1.14452 13.0257 0.475777C14.2916 -0.207657 15.9312 0.145557 16.796 1.29398C17.1952 1.82476 17.4993 2.42899 17.8231 3.01279C17.894 3.14117 17.8946 3.32832 17.8761 3.48289C17.8487 3.71283 17.6947 3.87634 17.5037 4.006C17.2355 4.18804 17.1001 4.44097 17.1371 4.76992C17.1914 5.24896 17.7203 5.61048 18.2753 5.35115C18.7556 5.12696 19.1389 5.25726 19.3925 5.7197C19.83 6.51619 20.3965 7.25391 20.5543 8.18325V8.96377C20.5434 8.9791 20.5256 8.99379 20.523 9.0104C20.4112 9.78134 20.0542 10.4162 19.4723 10.9317C19.4199 10.9783 19.3899 11.0748 19.388 11.1495C19.3797 11.5461 19.3867 11.9428 19.3835 12.3388C19.3797 12.7929 19.0808 13.1078 18.6279 13.1404C18.1527 13.1749 17.8193 13.5019 17.8257 13.9279C17.8321 14.3514 18.1578 14.6676 18.6222 14.7021C19.0878 14.7366 19.3803 15.047 19.3829 15.5171C19.3854 16.0108 19.3861 16.5052 19.3829 16.9989C19.3727 18.3453 18.58 19.4784 17.3179 19.9402C17.102 20.0194 16.8733 20.0661 16.6511 20.1274L16.6523 20.1287ZM3.7367 7.59627C3.7399 7.60968 3.74373 7.62309 3.74692 7.63651C4.12313 7.63651 4.49934 7.63395 4.87554 7.63651C5.34948 7.64034 5.68736 7.9712 5.68481 8.42341C5.68225 8.86541 5.34373 9.19372 4.88129 9.19691C4.50381 9.19946 4.12696 9.19308 3.74948 9.19882C2.97343 9.21032 2.35451 9.66254 2.19674 10.3939C2.11946 10.7503 2.15905 11.131 2.13031 11.4989C2.11754 11.6649 2.18844 11.7314 2.32832 11.7978C3.12992 12.181 3.60066 12.8223 3.68177 13.705C3.76545 14.6216 3.39562 15.3491 2.6381 15.8748C2.47395 15.9885 2.23315 16.0574 2.15394 16.212C2.06963 16.3768 2.11371 16.6208 2.13925 16.8265C2.17438 17.1132 2.19163 17.4192 2.30852 17.6747C2.5985 18.3083 3.14588 18.5663 3.82485 18.5663C6.40018 18.5676 8.97615 18.5663 11.5515 18.5663C13.0799 18.5663 14.6084 18.5676 16.1369 18.5663C17.0835 18.5657 17.7088 18.0158 17.8135 17.0775C17.8416 16.8265 17.8148 16.5703 17.8276 16.3174C17.834 16.1813 17.7893 16.1162 17.6609 16.0581C16.918 15.7202 16.4614 15.1441 16.3036 14.3431C16.0986 13.3007 16.6613 12.2245 17.6328 11.7965C17.779 11.732 17.8391 11.6579 17.8282 11.4957C17.8129 11.2753 17.8461 11.0511 17.8186 10.8333C17.7873 10.5791 17.7567 10.3096 17.65 10.0828C17.3607 9.46773 16.8312 9.2033 16.1675 9.19882C15.1852 9.19308 14.2035 9.19755 13.2211 9.19755C11.7642 9.19755 10.3073 9.19627 8.85032 9.19882C8.59419 9.19882 8.37639 9.11962 8.21351 8.92162C8.0104 8.67507 7.96314 8.39531 8.09535 8.10214C8.23012 7.80385 8.469 7.63842 8.8005 7.63778C10.108 7.63459 11.4148 7.63587 12.7223 7.63587C12.7925 7.63587 12.8628 7.63587 12.9509 7.63587C12.7957 7.2175 12.8436 6.85854 13.2115 6.60114C13.4881 6.40824 13.7915 6.40313 14.0706 6.59219C14.4494 6.84832 14.503 7.21239 14.3414 7.63778C15.0255 7.63778 15.6885 7.62948 16.3509 7.64034C17.0707 7.65184 17.7132 7.89519 18.2568 8.36721C18.4893 8.56904 18.6892 8.8092 18.9064 9.0334C19.0169 8.70637 19.0284 8.36593 18.8796 8.04401C18.7243 7.70932 18.5378 7.38868 18.3539 7.06804C18.329 7.02461 18.2428 7.00034 18.1827 6.99587C17.9125 6.97607 17.6315 7.00736 17.3722 6.94605C15.8309 6.58261 15.0792 4.88361 15.8865 3.5161C16.0845 3.18077 16.0449 2.97893 15.8641 2.70301C15.693 2.44177 15.5473 2.16392 15.2759 1.98764C14.7061 1.61718 14.1332 1.63314 13.5513 1.96784C10.8993 3.49119 8.24609 5.01135 5.59347 6.53215C4.97455 6.88665 4.35626 7.24114 3.73734 7.59627H3.7367Z" fill="#2DACE3"/>
<path d="M12.2694 5.64506C11.8389 5.64122 11.4985 5.29184 11.5004 4.85751C11.5023 4.41743 11.8542 4.07891 12.3026 4.08529C12.7318 4.09168 13.0665 4.44234 13.0608 4.88114C13.0557 5.31164 12.7056 5.64953 12.2694 5.6457V5.64506Z" fill="#2DACE3"/>
<path d="M14.3102 11.1438C14.3121 11.5794 13.9716 11.9268 13.5411 11.93C13.0979 11.9332 12.7485 11.5864 12.7498 11.1457C12.751 10.7126 13.0953 10.3703 13.5296 10.3696C13.964 10.3696 14.3082 10.7107 14.3102 11.1438Z" fill="#2DACE3"/>
<path d="M13.5367 14.6632C13.1024 14.6651 12.7536 14.324 12.7498 13.8935C12.746 13.4496 13.0909 13.1015 13.5335 13.1028C13.9666 13.1034 14.3089 13.4471 14.3095 13.8814C14.3095 14.3151 13.9678 14.6613 13.5367 14.6632Z" fill="#2DACE3"/>
<path d="M13.5302 17.3956C13.0966 17.3956 12.7516 17.0526 12.7504 16.6196C12.7491 16.1763 13.0959 15.832 13.5411 15.8352C13.9729 15.8384 14.312 16.1846 14.3101 16.6209C14.3089 17.0539 13.9639 17.3963 13.5302 17.3956Z" fill="#2DACE3"/>
</svg>
