<svg width="18" height="21" viewBox="0 0 18 21" fill="none" xmlns="http://www.w3.org/2000/svg">
<path d="M17.5722 8.03714C17.5745 7.23745 17.2796 6.60546 16.6654 6.10288C14.5162 4.34299 12.3731 2.57644 10.2234 0.817103C9.34313 0.096821 8.22411 0.096821 7.34722 0.818769C5.19248 2.59365 3.04441 4.37686 0.88967 6.15175C0.288231 6.64711 -0.0016589 7.2691 7.13968e-06 8.05103C0.00778197 11.3292 0.00278386 14.6074 0.0044499 17.8856C0.0044499 18.0583 0.0044499 18.2344 0.0366599 18.4027C0.25491 19.535 1.15901 20.2758 2.31468 20.2764C4.46942 20.2775 6.62472 20.2764 8.77945 20.2764C10.9342 20.2764 13.1034 20.2797 15.2653 20.2719C15.5102 20.2708 15.7635 20.2336 15.9989 20.1642C16.7692 19.9376 17.5806 19.1546 17.5739 17.8506C17.5561 14.5797 17.5622 11.3081 17.5722 8.03714ZM12.7119 17.3586C11.3962 17.3608 10.0806 17.3597 8.76502 17.3597C7.4494 17.3597 6.16156 17.3614 4.85928 17.3586C4.41778 17.3575 4.12011 17.0671 4.12955 16.6578C4.13622 16.3629 4.35336 16.0963 4.64436 16.0352C4.73155 16.0169 4.82262 16.0097 4.91203 16.0097C7.49494 16.0086 10.0779 16.008 12.6608 16.0091C13.1284 16.0091 13.4332 16.2657 13.4421 16.6583C13.4516 17.0682 13.155 17.3575 12.7119 17.3586Z" fill="#2DACE3"/>
</svg>
