<svg width="19" height="21" viewBox="0 0 19 21" fill="none" xmlns="http://www.w3.org/2000/svg">
<path d="M18.1562 8.03714C18.1584 7.23745 17.8635 6.60546 17.2493 6.10288C15.1002 4.34299 12.9571 2.57644 10.8073 0.817103C9.92711 0.096821 8.80809 0.096821 7.9312 0.818769C5.77647 2.59365 3.62839 4.37686 1.47365 6.15175C0.872216 6.64711 0.582325 7.2691 0.583992 8.05103C0.591766 11.3292 0.586768 14.6074 0.588434 17.8856C0.588434 18.0583 0.588434 18.2344 0.620644 18.4027C0.838895 19.535 1.743 20.2758 2.89867 20.2764C5.05341 20.2775 7.2087 20.2764 9.36344 20.2764C11.5182 20.2764 13.6874 20.2797 15.8493 20.2719C16.0942 20.2708 16.3475 20.2336 16.5829 20.1642C17.3532 19.9376 18.1645 19.1546 18.1579 17.8506C18.1401 14.5797 18.1462 11.3081 18.1562 8.03714ZM13.2958 17.3586C11.9802 17.3608 10.6646 17.3597 9.349 17.3597C8.03339 17.3597 6.74554 17.3614 5.44326 17.3586C5.00176 17.3575 4.7041 17.0671 4.71354 16.6578C4.7202 16.3629 4.93734 16.0963 5.22834 16.0352C5.31553 16.0169 5.40661 16.0097 5.49602 16.0097C8.07893 16.0086 10.6618 16.008 13.2447 16.0091C13.7123 16.0091 14.0172 16.2657 14.0261 16.6583C14.0356 17.0682 13.739 17.3575 13.2958 17.3586Z" fill="#505050"/>
</svg>
