<svg width="17" height="21" viewBox="0 0 17 21" fill="none" xmlns="http://www.w3.org/2000/svg">
<path d="M4.46567 4.7741C4.37665 3.36538 4.78836 2.17086 5.84935 1.24841C6.63716 0.563524 7.56629 0.24417 8.60892 0.279777C10.9284 0.358225 12.7255 2.42846 12.4623 4.77299C12.5663 4.77299 12.6671 4.77076 12.7678 4.77299C13.2596 4.78523 13.7586 4.74906 14.2416 4.82195C15.1139 4.95381 15.7788 5.70434 15.8317 6.58507C15.9151 7.97098 15.9724 9.358 16.0386 10.745C16.1455 12.9777 16.2539 15.2104 16.3524 17.4437C16.3708 17.8643 16.4008 18.2977 16.3263 18.7072C16.1605 19.6202 15.3588 20.2578 14.4285 20.2711C13.6719 20.2822 12.9152 20.2744 12.1585 20.2744C8.97223 20.2744 5.78592 20.2756 2.60017 20.2739C1.56088 20.2739 0.732455 19.6263 0.567771 18.6354C0.503789 18.2509 0.54329 17.8465 0.560538 17.452C0.632865 15.7946 0.714092 14.1372 0.793652 12.4803C0.888234 10.5113 0.972244 8.54125 1.08407 6.57339C1.13971 5.58639 2.00264 4.79468 2.99241 4.77577C3.47033 4.76687 3.9488 4.7741 4.46511 4.7741H4.46567ZM8.45759 18.9414C10.4082 18.9414 12.3588 18.9414 14.31 18.9414C14.8018 18.9414 15.0661 18.6638 15.0489 18.1714C15.0411 17.9561 15.0344 17.7413 15.0244 17.526C14.9181 15.2655 14.8113 13.0044 14.7045 10.7439C14.6422 9.42643 14.5843 8.1084 14.5153 6.79148C14.4903 6.31134 14.2243 6.07711 13.7492 6.07878C12.7077 6.08323 11.6667 6.08824 10.6252 6.09102C8.13323 6.09769 5.64071 6.10326 3.14875 6.10938C2.6814 6.11049 2.42881 6.34027 2.39988 6.81262C2.3665 7.35285 2.34925 7.8942 2.32421 8.43554C2.17233 11.6669 2.01989 14.8988 1.86855 18.1302C1.84296 18.6788 2.09722 18.9414 2.64691 18.9414C4.58362 18.9414 6.52088 18.9414 8.45759 18.9414ZM11.0998 4.76798C11.2739 3.64579 10.7626 2.54641 9.81512 1.98114C8.88766 1.42812 7.70371 1.49488 6.84413 2.15473C6.03128 2.77842 5.66352 3.75261 5.82653 4.76798H11.0998Z" fill="#2DACE3"/>
<path d="M8.47262 11.5211C6.59655 11.4855 4.99366 10.222 4.56137 8.40716C4.47513 8.04552 4.58362 7.7551 4.86403 7.59709C5.12163 7.45188 5.47659 7.48471 5.66798 7.70614C5.76701 7.82075 5.83377 7.97709 5.8755 8.12564C6.1815 9.21556 6.8803 9.89933 7.9858 10.133C9.31607 10.4145 10.6831 9.55105 11.0402 8.23079C11.0586 8.16403 11.072 8.0956 11.0909 8.02883C11.1988 7.64494 11.5465 7.43797 11.926 7.53033C12.2804 7.61657 12.4935 7.97598 12.3967 8.35931C12.0089 9.89488 11.053 10.8975 9.53583 11.3442C9.19367 11.4449 8.82814 11.4638 8.47318 11.5206L8.47262 11.5211Z" fill="#2DACE3"/>
</svg>
