<svg width="21" height="21" viewBox="0 0 21 21" fill="none" xmlns="http://www.w3.org/2000/svg">
<path d="M18.5358 10.1368C18.5195 9.87977 18.502 9.62271 18.4876 9.36564C18.4545 8.78958 18.8504 8.33424 19.4227 8.28733C19.9469 8.2448 20.4172 8.65636 20.4729 9.20614C20.9933 14.3531 17.6677 18.9879 12.6126 20.0549C7.13412 21.2114 1.98964 17.7282 0.808753 12.5143C-0.306459 7.58868 2.32864 2.69188 7.06282 0.927433C9.71919 -0.062685 12.3549 0.089304 14.9212 1.30459C15.4673 1.56291 15.6824 2.14147 15.4416 2.6531C15.2008 3.16474 14.6172 3.37052 14.0706 3.1097C12.7683 2.4886 11.4036 2.20902 9.96312 2.3191C7.82652 2.48298 6.02767 3.35926 4.60035 4.94983C3.03918 6.69051 2.38869 8.7533 2.58821 11.0788C2.88844 14.5852 5.68741 17.5874 9.17253 18.1572C13.5189 18.8678 17.5238 16.1151 18.3801 11.8112C18.4889 11.2633 18.512 10.6991 18.5746 10.1418C18.5614 10.14 18.5483 10.1387 18.5352 10.1368H18.5358Z" fill="#505050"/>
<path d="M10.5398 10.9318C10.6393 10.8049 10.6856 10.7304 10.7456 10.6704C13.4089 8.00403 16.0746 5.34015 18.7366 2.67253C18.9624 2.44673 19.2132 2.28599 19.5359 2.29412C19.9425 2.30475 20.2559 2.49052 20.4304 2.86642C20.5992 3.22982 20.5567 3.58008 20.319 3.9022C20.2684 3.971 20.2052 4.03042 20.1445 4.09109C17.2098 7.02704 14.2739 9.96112 11.341 12.899C11.0296 13.2111 10.6793 13.3749 10.2459 13.2292C10.0895 13.1767 9.93375 13.0785 9.81553 12.9621C8.82729 11.9864 7.84593 11.0032 6.86707 10.018C6.44676 9.59522 6.44175 8.97038 6.84456 8.57446C7.24423 8.18166 7.85218 8.18854 8.27125 8.6026C8.96489 9.28812 9.65228 9.97989 10.3403 10.6717C10.4003 10.7317 10.4448 10.8074 10.5386 10.9312L10.5398 10.9318Z" fill="#505050"/>
</svg>
