<svg width="21" height="21" viewBox="0 0 21 21" fill="none" xmlns="http://www.w3.org/2000/svg">
<path d="M18.5357 10.1368C18.5194 9.87977 18.5019 9.62271 18.4875 9.36564C18.4544 8.78958 18.8503 8.33424 19.4226 8.28733C19.9467 8.2448 20.4171 8.65636 20.4728 9.20614C20.9931 14.3531 17.6675 18.9879 12.6125 20.0549C7.134 21.2114 1.98952 17.7282 0.808631 12.5143C-0.306581 7.58868 2.32852 2.69188 7.0627 0.927433C9.71907 -0.062685 12.3548 0.089304 14.9211 1.30459C15.4671 1.56291 15.6823 2.14147 15.4415 2.6531C15.2007 3.16474 14.6171 3.37052 14.0705 3.1097C12.7682 2.4886 11.4035 2.20902 9.963 2.3191C7.8264 2.48298 6.02755 3.35926 4.60023 4.94983C3.03905 6.69051 2.38856 8.7533 2.58809 11.0788C2.88831 14.5852 5.68729 17.5874 9.17241 18.1572C13.5188 18.8678 17.5237 16.1151 18.3799 11.8112C18.4888 11.2633 18.5119 10.6991 18.5745 10.1418C18.5613 10.14 18.5482 10.1387 18.5351 10.1368H18.5357Z" fill="#2DACE3"/>
<path d="M10.5396 10.9318C10.6391 10.8049 10.6854 10.7304 10.7454 10.6704C13.4087 8.00403 16.0744 5.34015 18.7364 2.67253C18.9622 2.44673 19.213 2.28599 19.5358 2.29412C19.9423 2.30475 20.2557 2.49052 20.4302 2.86642C20.5991 3.22982 20.5565 3.58008 20.3189 3.9022C20.2682 3.971 20.205 4.03042 20.1443 4.09109C17.2096 7.02704 14.2737 9.96112 11.3409 12.899C11.0294 13.2111 10.6791 13.3749 10.2457 13.2292C10.0893 13.1767 9.93357 13.0785 9.81535 12.9621C8.82711 11.9864 7.84575 11.0032 6.86689 10.018C6.44657 9.59522 6.44157 8.97038 6.84437 8.57446C7.24405 8.18166 7.852 8.18854 8.27106 8.6026C8.96471 9.28812 9.6521 9.97989 10.3401 10.6717C10.4002 10.7317 10.4446 10.8074 10.5384 10.9312L10.5396 10.9318Z" fill="#2DACE3"/>
</svg>
