<svg width="21" height="21" viewBox="0 0 21 21" fill="none" xmlns="http://www.w3.org/2000/svg">
<path d="M20.0677 4.27982V5.60765C20.0559 5.63 20.041 5.65173 20.0323 5.67532C19.8864 6.07199 19.5357 6.29175 19.1539 6.22408C18.7653 6.15518 18.5089 5.83672 18.5052 5.41521C18.5033 5.18118 18.5052 4.94653 18.5052 4.7125C18.5027 3.30768 17.4828 2.28775 16.0779 2.28775C14.0213 2.28775 11.9653 2.28775 9.90868 2.28775C7.9371 2.28775 5.9649 2.27844 3.99332 2.29272C2.19928 2.30575 1.06761 4.20532 1.92925 5.7585C2.38862 6.58662 3.12424 6.97646 4.06968 6.97646C8.08485 6.97646 12.1 6.97522 16.1152 6.97646C17.9899 6.97708 19.5499 8.21615 19.9721 10.0363C20.0099 10.1989 20.036 10.3647 20.0677 10.5292V17.169C20.0553 17.2242 20.0397 17.2795 20.0298 17.3353C19.7511 18.9692 18.8224 20.0456 17.2512 20.5627C17.0252 20.6372 16.7862 20.6708 16.5528 20.7229H4.3304C4.15907 20.6906 3.98711 20.6627 3.81764 20.6261C1.59527 20.14 0.0774745 18.2628 0.0756122 15.9876C0.0725083 12.1997 0.0743706 8.41107 0.0756122 4.6231C0.076233 2.51868 1.82992 0.737054 3.93559 0.731467C8.02215 0.720293 12.1093 0.720914 16.1959 0.728363C17.9912 0.731467 19.5431 1.98233 19.9572 3.73043C20 3.9117 20.0317 4.09607 20.0683 4.2792L20.0677 4.27982ZM1.63624 7.7605C1.63624 7.86417 1.63624 7.92749 1.63624 7.99019C1.63624 10.6459 1.635 13.3009 1.63624 15.9566C1.63748 17.7953 3.00567 19.1604 4.84689 19.161C8.5883 19.1617 12.3303 19.161 16.0717 19.161C17.4871 19.161 18.5039 18.1411 18.5046 16.722C18.5058 14.8088 18.5052 12.8949 18.5046 10.9817C18.5046 9.55206 17.4877 8.53833 16.0562 8.53833C12.1323 8.53833 8.20838 8.53088 4.28509 8.54392C3.3322 8.54702 2.45442 8.3552 1.63624 7.7605Z" fill="#2DACE3"/>
<path d="M10.0738 5.41343C8.07058 5.41343 6.06734 5.41343 4.06348 5.41343C3.65315 5.41343 3.3769 5.24334 3.25585 4.9224C3.0659 4.41957 3.38249 3.91054 3.92008 3.85529C3.95857 3.85156 3.9983 3.85156 4.03679 3.85156C8.06313 3.85156 12.0895 3.85156 16.1152 3.85156C16.451 3.85156 16.7087 3.98937 16.8601 4.29231C17.1184 4.80756 16.7472 5.4066 16.1611 5.41157C15.2635 5.41902 14.3659 5.41405 13.4682 5.41405C12.3365 5.41405 11.2049 5.41405 10.0732 5.41405L10.0738 5.41343Z" fill="#2DACE3"/>
<path d="M16.9427 13.8405C16.9471 14.3718 16.5156 14.8188 15.9911 14.825C15.4299 14.8318 14.9948 14.406 14.9948 13.8498C14.9948 13.301 15.4181 12.8783 15.9719 12.8745C16.4964 12.8708 16.9384 13.3109 16.9427 13.8405Z" fill="#2DACE3"/>
</svg>
