<svg width="21" height="21" viewBox="0 0 21 21" fill="none" xmlns="http://www.w3.org/2000/svg">
<path d="M20.5677 3.83402V5.16185C20.5559 5.1842 20.541 5.20593 20.5323 5.22952C20.3864 5.62619 20.0357 5.84595 19.6539 5.77828C19.2653 5.70938 19.0089 5.39092 19.0052 4.96941C19.0033 4.73538 19.0052 4.50073 19.0052 4.2667C19.0027 2.86188 17.9828 1.84195 16.5779 1.84195C14.5213 1.84195 12.4653 1.84195 10.4087 1.84195C8.4371 1.84195 6.4649 1.83264 4.49332 1.84692C2.69928 1.85995 1.56761 3.75952 2.42925 5.3127C2.88862 6.14081 3.62424 6.53066 4.56968 6.53066C8.58485 6.53066 12.6 6.52942 16.6152 6.53066C18.4899 6.53128 20.0499 7.77035 20.4721 9.59046C20.5099 9.7531 20.536 9.91885 20.5677 10.0834V16.7232C20.5553 16.7784 20.5397 16.8337 20.5298 16.8895C20.2511 18.5234 19.3224 19.5998 17.7512 20.1169C17.5252 20.1914 17.2862 20.225 17.0528 20.2771H4.8304C4.65907 20.2448 4.48711 20.2169 4.31764 20.1803C2.09527 19.6942 0.577475 17.817 0.575612 15.5418C0.572508 11.7539 0.574371 7.96527 0.575612 4.1773C0.576233 2.07288 2.32992 0.291254 4.43559 0.285667C8.52215 0.274493 12.6093 0.275113 16.6959 0.282563C18.4912 0.285666 20.0431 1.53653 20.4572 3.28463C20.5 3.4659 20.5317 3.65027 20.5683 3.8334L20.5677 3.83402ZM2.13624 7.3147C2.13624 7.41837 2.13624 7.48169 2.13624 7.54439C2.13624 10.2001 2.135 12.8551 2.13624 15.5108C2.13748 17.3495 3.50567 18.7146 5.34689 18.7152C9.0883 18.7159 12.8303 18.7152 16.5717 18.7152C17.9871 18.7152 19.0039 17.6953 19.0046 16.2762C19.0058 14.363 19.0052 12.4491 19.0046 10.5359C19.0046 9.10626 17.9877 8.09253 16.5562 8.09253C12.6323 8.09253 8.70838 8.08508 4.78509 8.09812C3.8322 8.10122 2.95442 7.9094 2.13624 7.3147Z" fill="#505050"/>
<path d="M10.5738 4.96757C8.57058 4.96757 6.56734 4.96757 4.56348 4.96757C4.15315 4.96757 3.8769 4.79748 3.75585 4.47654C3.5659 3.97371 3.88249 3.46467 4.42008 3.40943C4.45857 3.4057 4.4983 3.4057 4.53679 3.4057C8.56313 3.4057 12.5895 3.4057 16.6152 3.4057C16.951 3.4057 17.2087 3.54351 17.3601 3.84645C17.6184 4.36169 17.2472 4.96074 16.6611 4.96571C15.7635 4.97316 14.8659 4.96819 13.9682 4.96819C12.8365 4.96819 11.7049 4.96819 10.5732 4.96819L10.5738 4.96757Z" fill="#505050"/>
<path d="M17.4427 13.3945C17.447 13.9259 17.0156 14.3729 16.491 14.3791C15.9299 14.3859 15.4947 13.9601 15.4947 13.4039C15.4947 12.8551 15.9181 12.4323 16.4718 12.4286C16.9963 12.4249 17.4383 12.865 17.4427 13.3945Z" fill="#505050"/>
</svg>
